<svg width="1008" height="623" viewBox="0 0 1008 623" fill="none" xmlns="http://www.w3.org/2000/svg">
<g filter="url(#filter0_f)">
<ellipse cx="504.5" cy="574" rx="452.5" ry="5" fill="black"/>
</g>
<path d="M99 28C99 13.0883 111.088 1 126 1H886C900.912 1 913 13.0883 913 28V550C913 551.657 911.657 553 910 553H102C100.343 553 99 551.657 99 550V28Z" fill="#1A202C" stroke="#4A5568" stroke-width="2"/>
<path d="M103 27C103 14.8497 112.85 5 125 5H887C899.15 5 909 14.8497 909 27V533H103V27Z" fill="black"/>
<rect x="124" y="33" width="761" height="478" fill="white"/>
<path d="M380.965 280V263.09H377.426V280H380.965ZM383.484 280H386.906V272.793C386.906 271.164 387.879 270.039 389.414 270.039C390.949 270.039 391.723 270.977 391.723 272.617V280H395.145V271.902C395.145 268.961 393.574 267.203 390.785 267.203C388.852 267.203 387.527 268.117 386.859 269.676H386.789V267.438H383.484V280ZM397.102 271.129C397.102 273.016 398.332 274.234 400.758 274.75L402.902 275.195C404.133 275.477 404.566 275.852 404.566 276.52C404.566 277.34 403.77 277.867 402.48 277.867C401.121 277.867 400.336 277.281 400.125 276.18H396.785C397.008 278.652 399.012 280.27 402.48 280.27C405.715 280.27 407.977 278.641 407.977 276.168C407.977 274.328 406.898 273.297 404.273 272.746L402.129 272.289C400.863 272.02 400.395 271.586 400.395 270.941C400.395 270.109 401.18 269.57 402.363 269.57C403.629 269.57 404.391 270.262 404.496 271.281H407.648C407.578 268.82 405.586 267.168 402.363 267.168C399.164 267.168 397.102 268.738 397.102 271.129ZM415.301 269.699C416.824 269.699 417.867 270.801 417.938 272.406H412.605C412.723 270.836 413.801 269.699 415.301 269.699ZM417.984 276.156C417.668 277.117 416.707 277.738 415.453 277.738C413.707 277.738 412.57 276.508 412.57 274.715V274.504H421.23V273.461C421.23 269.641 418.922 267.168 415.266 267.168C411.551 267.168 409.207 269.77 409.207 273.777C409.207 277.797 411.527 280.27 415.395 280.27C418.5 280.27 420.75 278.617 421.125 276.156H417.984ZM423 280H426.422V272.98C426.422 271.211 427.406 270.18 429.094 270.18C429.586 270.18 430.055 270.262 430.336 270.379V267.367C430.102 267.297 429.762 267.238 429.363 267.238C427.887 267.238 426.82 268.105 426.375 269.699H426.305V267.438H423V280ZM432.656 264.543V267.438H430.887V270.016H432.656V276.613C432.656 279.062 433.805 280.047 436.758 280.047C437.449 280.047 438.035 279.988 438.387 279.906V277.387C438.176 277.422 437.859 277.445 437.555 277.445C436.547 277.445 436.078 276.988 436.078 276.027V270.016H438.398V267.438H436.078V264.543H432.656ZM453.668 280V273.684L459.562 263.09H455.766L451.969 270.309H451.887L448.102 263.09H444.246L450.129 273.684V280H453.668ZM464.18 280.27C467.977 280.27 470.402 277.844 470.402 273.707C470.402 269.629 467.941 267.168 464.18 267.168C460.418 267.168 457.957 269.641 457.957 273.707C457.957 277.832 460.383 280.27 464.18 280.27ZM464.18 277.656C462.492 277.656 461.426 276.238 461.426 273.719C461.426 271.223 462.516 269.781 464.18 269.781C465.844 269.781 466.922 271.223 466.922 273.719C466.922 276.238 465.855 277.656 464.18 277.656ZM483.773 267.438H480.352V274.633C480.352 276.297 479.402 277.387 477.879 277.387C476.367 277.387 475.535 276.496 475.535 274.82V267.438H472.113V275.535C472.113 278.465 473.918 280.234 476.637 280.234C478.535 280.234 479.777 279.32 480.398 277.738H480.469V280H483.773V267.438ZM486 280H489.422V272.98C489.422 271.211 490.406 270.18 492.094 270.18C492.586 270.18 493.055 270.262 493.336 270.379V267.367C493.102 267.297 492.762 267.238 492.363 267.238C490.887 267.238 489.82 268.105 489.375 269.699H489.305V267.438H486V280ZM499.793 263.09V280H506.25C511.324 280 514.312 276.848 514.312 271.48C514.312 266.113 511.324 263.09 506.25 263.09H499.793ZM503.332 266.008H505.828C508.945 266.008 510.703 267.953 510.703 271.492C510.703 275.148 508.992 277.07 505.828 277.07H503.332V266.008ZM521.941 269.699C523.465 269.699 524.508 270.801 524.578 272.406H519.246C519.363 270.836 520.441 269.699 521.941 269.699ZM524.625 276.156C524.309 277.117 523.348 277.738 522.094 277.738C520.348 277.738 519.211 276.508 519.211 274.715V274.504H527.871V273.461C527.871 269.641 525.562 267.168 521.906 267.168C518.191 267.168 515.848 269.77 515.848 273.777C515.848 277.797 518.168 280.27 522.035 280.27C525.141 280.27 527.391 278.617 527.766 276.156H524.625ZM529.43 271.129C529.43 273.016 530.66 274.234 533.086 274.75L535.23 275.195C536.461 275.477 536.895 275.852 536.895 276.52C536.895 277.34 536.098 277.867 534.809 277.867C533.449 277.867 532.664 277.281 532.453 276.18H529.113C529.336 278.652 531.34 280.27 534.809 280.27C538.043 280.27 540.305 278.641 540.305 276.168C540.305 274.328 539.227 273.297 536.602 272.746L534.457 272.289C533.191 272.02 532.723 271.586 532.723 270.941C532.723 270.109 533.508 269.57 534.691 269.57C535.957 269.57 536.719 270.262 536.824 271.281H539.977C539.906 268.82 537.914 267.168 534.691 267.168C531.492 267.168 529.43 268.738 529.43 271.129ZM542.051 280H545.473V267.438H542.051V280ZM543.75 265.738C544.746 265.738 545.531 264.941 545.531 263.98C545.531 263.008 544.746 262.223 543.75 262.223C542.754 262.223 541.969 263.008 541.969 263.98C541.969 264.941 542.754 265.738 543.75 265.738ZM553.559 277.328C551.859 277.328 550.805 275.992 550.805 273.695C550.805 271.41 551.871 269.98 553.559 269.98C555.27 269.98 556.359 271.434 556.359 273.695C556.359 275.969 555.27 277.328 553.559 277.328ZM553.5 284.734C557.262 284.734 559.77 282.824 559.77 279.824V267.438H556.395V269.629H556.336C555.68 268.188 554.262 267.238 552.457 267.238C549.27 267.238 547.301 269.688 547.301 273.672C547.301 277.598 549.328 279.965 552.398 279.965C554.215 279.965 555.691 279.051 556.277 277.715H556.348V279.918C556.348 281.371 555.363 282.355 553.594 282.355C552.293 282.355 551.309 281.758 551.039 280.891H547.688C547.957 283.129 550.195 284.734 553.5 284.734ZM562.008 280H565.43V272.793C565.43 271.164 566.402 270.039 567.938 270.039C569.473 270.039 570.246 270.977 570.246 272.617V280H573.668V271.902C573.668 268.961 572.098 267.203 569.309 267.203C567.375 267.203 566.051 268.117 565.383 269.676H565.312V267.438H562.008V280ZM595.582 280V263.09H592.043V269.957H584.426V263.09H580.887V280H584.426V272.875H592.043V280H595.582ZM603.738 269.699C605.262 269.699 606.305 270.801 606.375 272.406H601.043C601.16 270.836 602.238 269.699 603.738 269.699ZM606.422 276.156C606.105 277.117 605.145 277.738 603.891 277.738C602.145 277.738 601.008 276.508 601.008 274.715V274.504H609.668V273.461C609.668 269.641 607.359 267.168 603.703 267.168C599.988 267.168 597.645 269.77 597.645 273.777C597.645 277.797 599.965 280.27 603.832 280.27C606.938 280.27 609.188 278.617 609.562 276.156H606.422ZM611.438 280H614.859V272.98C614.859 271.211 615.844 270.18 617.531 270.18C618.023 270.18 618.492 270.262 618.773 270.379V267.367C618.539 267.297 618.199 267.238 617.801 267.238C616.324 267.238 615.258 268.105 614.812 269.699H614.742V267.438H611.438V280ZM625.395 269.699C626.918 269.699 627.961 270.801 628.031 272.406H622.699C622.816 270.836 623.895 269.699 625.395 269.699ZM628.078 276.156C627.762 277.117 626.801 277.738 625.547 277.738C623.801 277.738 622.664 276.508 622.664 274.715V274.504H631.324V273.461C631.324 269.641 629.016 267.168 625.359 267.168C621.645 267.168 619.301 269.77 619.301 273.777C619.301 277.797 621.621 280.27 625.488 280.27C628.594 280.27 630.844 278.617 631.219 276.156H628.078Z" fill="#2D3748"/>
<path d="M471.435 545V539.014H471.486L473.733 544.08H474.768L477.008 539.014H477.065V545H478.367V536.335H476.926L474.279 542.429H474.234L471.587 536.335H470.14V545H471.435ZM483.965 544.175H484.016V545H485.355V540.43C485.355 538.932 484.245 538.189 482.753 538.189C480.963 538.189 480.201 539.141 480.144 540.284H481.464C481.515 539.687 481.953 539.287 482.721 539.287C483.508 539.287 483.965 539.712 483.965 540.48V541.122H482.264C480.722 541.122 479.896 541.877 479.896 543.07C479.896 544.321 480.792 545.102 482.093 545.102C483.083 545.102 483.673 544.689 483.965 544.175ZM482.518 544.029C481.896 544.029 481.312 543.692 481.312 542.994C481.312 542.436 481.687 542.048 482.505 542.048H483.965V542.791C483.965 543.521 483.337 544.029 482.518 544.029ZM486.815 541.915C486.815 543.794 487.888 545.114 489.71 545.114C491.271 545.114 492.243 544.314 492.42 542.975H491.087C490.992 543.496 490.573 543.946 489.792 543.946C488.834 543.946 488.231 543.159 488.231 541.915V541.344C488.231 540.106 488.809 539.344 489.786 539.344C490.453 539.344 490.935 539.839 491.049 540.404H492.382C492.332 539.23 491.341 538.176 489.71 538.176C487.895 538.176 486.815 539.478 486.815 541.312V541.915ZM497.238 545.095C498.819 545.095 499.847 543.927 499.847 541.953V541.331C499.847 539.3 498.787 538.202 497.245 538.202C496.375 538.202 495.62 538.64 495.302 539.243H495.245V535.878H493.836V545H495.207V543.978H495.264C495.626 544.664 496.28 545.095 497.238 545.095ZM496.889 543.934C495.867 543.934 495.232 543.223 495.232 541.883V541.401C495.232 540.068 495.867 539.363 496.889 539.363C497.791 539.363 498.413 540.074 498.413 541.401V541.896C498.413 543.216 497.791 543.934 496.889 543.934ZM504.087 538.176C502.158 538.176 501.098 539.541 501.098 541.363V541.902C501.098 543.794 502.151 545.114 504.087 545.114C506.023 545.114 507.064 543.794 507.064 541.902V541.363C507.064 539.535 506.017 538.176 504.087 538.176ZM504.087 539.306C505.135 539.306 505.649 540.157 505.649 541.382V541.896C505.649 543.102 505.141 543.978 504.087 543.978C503.034 543.978 502.52 543.096 502.52 541.896V541.382C502.52 540.163 503.04 539.306 504.087 539.306ZM511.311 538.176C509.381 538.176 508.321 539.541 508.321 541.363V541.902C508.321 543.794 509.375 545.114 511.311 545.114C513.247 545.114 514.288 543.794 514.288 541.902V541.363C514.288 539.535 513.241 538.176 511.311 538.176ZM511.311 539.306C512.358 539.306 512.873 540.157 512.873 541.382V541.896C512.873 543.102 512.365 543.978 511.311 543.978C510.257 543.978 509.743 543.096 509.743 541.896V541.382C509.743 540.163 510.264 539.306 511.311 539.306ZM517.24 542.645L517.779 542.036L519.861 545H521.543L518.839 541.198L521.378 538.291H519.709L517.297 541.141H517.24V535.878H515.831V545H517.24V542.645ZM525.631 545L526.406 542.601H529.446L530.214 545H531.738L528.761 536.335H527.148L524.165 545H525.631ZM527.961 537.833L529.123 541.496H526.729L527.904 537.833H527.961ZM532.696 536.653C532.696 537.116 533.077 537.446 533.534 537.446C533.991 537.446 534.366 537.116 534.366 536.653C534.366 536.189 533.991 535.853 533.534 535.853C533.077 535.853 532.696 536.189 532.696 536.653ZM532.83 545H534.239V538.291H532.83V545ZM536.092 545H537.521V541.026C537.521 540.125 537.901 539.427 539.031 539.427C539.266 539.427 539.514 539.446 539.634 539.478V538.233C539.501 538.208 539.342 538.195 539.158 538.195C538.225 538.195 537.724 538.754 537.552 539.173H537.501V538.291H536.092V545Z" fill="#A0AEC0"/>
<path d="M0 552C0 550.895 0.895431 550 2 550H1006C1007.1 550 1008 550.895 1008 552V556H0V552Z" fill="#A3ACB1"/>
<path d="M0 552C0 550.895 0.895431 550 2 550H1006C1007.1 550 1008 550.895 1008 552V556H0V552Z" fill="url(#paint0_linear)"/>
<path d="M0 556H1008L987.646 560.105C961.613 565.355 935.123 568 908.566 568H97.9089C68.724 568 39.6267 564.806 11.1367 558.475L0 556Z" fill="#647279"/>
<path d="M0 556H1008L987.646 560.105C961.613 565.355 935.123 568 908.566 568H97.9089C68.724 568 39.6267 564.806 11.1367 558.475L0 556Z" fill="url(#paint1_linear)"/>
<path fill-rule="evenodd" clip-rule="evenodd" d="M430.033 550C430.547 553.351 428.052 556 436 556H573C580.948 556 578.453 553.351 578.967 550H430.033Z" fill="#96A1A8"/>
<path fill-rule="evenodd" clip-rule="evenodd" d="M430.033 550C430.547 553.351 428.052 556 436 556H573C580.948 556 578.453 553.351 578.967 550H430.033Z" fill="url(#paint2_linear)"/>
<defs>
<filter id="filter0_f" x="8" y="525" width="993" height="98" filterUnits="userSpaceOnUse" color-interpolation-filters="sRGB">
<feFlood flood-opacity="0" result="BackgroundImageFix"/>
<feBlend mode="normal" in="SourceGraphic" in2="BackgroundImageFix" result="shape"/>
<feGaussianBlur stdDeviation="22" result="effect1_foregroundBlur"/>
</filter>
<linearGradient id="paint0_linear" x1="-1.94452e-10" y1="553" x2="1008" y2="553" gradientUnits="userSpaceOnUse">
<stop stop-color="#0D1012"/>
<stop offset="0.0295345" stop-color="#CAD4DB"/>
<stop offset="0.0625" stop-color="#242729"/>
<stop offset="0.133609" stop-color="#A3ACB1"/>
<stop offset="0.865967" stop-color="#A3ACB1"/>
<stop offset="0.941937" stop-color="#242729"/>
<stop offset="0.971275" stop-color="#CAD4DB"/>
<stop offset="0.996436" stop-color="#0D1012"/>
</linearGradient>
<linearGradient id="paint1_linear" x1="504" y1="556" x2="504" y2="568" gradientUnits="userSpaceOnUse">
<stop stop-color="#7A7F83"/>
<stop offset="1" stop-color="#0B0B0E"/>
</linearGradient>
<linearGradient id="paint2_linear" x1="437.5" y1="553.643" x2="574.5" y2="553.643" gradientUnits="userSpaceOnUse">
<stop stop-color="#3C3C3C"/>
<stop offset="0.317518" stop-color="#3C3C3C" stop-opacity="0"/>
<stop offset="0.660584" stop-color="#3C3C3C" stop-opacity="0"/>
<stop offset="1" stop-color="#444444"/>
</linearGradient>
</defs>
</svg>
